<svg xmlns="http://www.w3.org/2000/svg" xmlns:xlink="http://www.w3.org/1999/xlink" width="280" zoomAndPan="magnify" viewBox="0 0 210 167.999997" height="224" preserveAspectRatio="xMidYMid meet" version="1.0"><defs><clipPath id="id1"><path d="M 103 103.171875 L 209.808594 103.171875 L 209.808594 167.671875 L 103 167.671875 Z M 103 103.171875 " clip-rule="nonzero"/></clipPath><clipPath id="id2"><path d="M 113.859375 105.410156 L 197.859375 105.410156 L 197.859375 160.910156 L 113.859375 160.910156 Z M 113.859375 105.410156 " clip-rule="nonzero"/></clipPath><clipPath id="id3"><path d="M 25.480469 76.210938 L 120.730469 76.210938 L 120.730469 167.710938 L 25.480469 167.710938 Z M 25.480469 76.210938 " clip-rule="nonzero"/></clipPath><clipPath id="id4"><path d="M 2.015625 108.464844 L 35.015625 108.464844 L 35.015625 166.214844 L 2.015625 166.214844 Z M 2.015625 108.464844 " clip-rule="nonzero"/></clipPath><clipPath id="id5"><path d="M 0.300781 106.457031 L 37.050781 106.457031 L 37.050781 167.957031 L 0.300781 167.957031 Z M 0.300781 106.457031 " clip-rule="nonzero"/></clipPath><clipPath id="id6"><path d="M 135.382812 62.015625 L 177.382812 62.015625 L 177.382812 75 L 135.382812 75 Z M 135.382812 62.015625 " clip-rule="nonzero"/></clipPath><clipPath id="id7"><path d="M 154 86 L 159 86 L 159 90.515625 L 154 90.515625 Z M 154 86 " clip-rule="nonzero"/></clipPath></defs><g clip-path="url(#id1)"><path fill="#212549" d="M 115.394531 103.171875 C 113.738281 103.171875 112.40625 104.472656 112.40625 106.085938 L 112.40625 159.375 C 112.40625 160.910156 112.1875 162.160156 113.59375 162.277344 L 103.769531 162.277344 C 102.605469 162.277344 103.199219 163.179688 103.199219 164.300781 L 103.199219 165.652344 C 103.199219 166.769531 104.136719 167.671875 105.300781 167.671875 L 207.070312 167.671875 C 208.234375 167.671875 209.167969 166.769531 209.167969 165.652344 L 209.167969 164.300781 C 209.167969 163.179688 209.761719 162.277344 208.601562 162.277344 L 198.777344 162.277344 C 200.179688 162.160156 199.964844 160.910156 199.964844 159.375 L 199.964844 106.085938 C 199.964844 104.472656 198.628906 103.171875 196.972656 103.171875 Z M 141.21875 103.878906 C 141.644531 103.878906 141.988281 104.214844 141.988281 104.628906 C 141.988281 105.042969 141.644531 105.378906 141.21875 105.378906 C 140.792969 105.378906 140.449219 105.042969 140.449219 104.628906 C 140.449219 104.214844 140.792969 103.878906 141.21875 103.878906 Z M 115.324219 106.089844 L 197.046875 106.089844 L 197.046875 159.367188 L 115.324219 159.367188 Z M 142.898438 162.289062 L 169.472656 162.289062 C 169.429688 162.851562 169.039062 163.292969 168.554688 163.292969 L 143.816406 163.292969 C 143.332031 163.292969 142.9375 162.851562 142.898438 162.289062 Z M 196.851562 163.882812 C 197.476562 163.882812 197.984375 164.375 197.984375 164.976562 C 197.984375 165.578125 197.476562 166.070312 196.851562 166.070312 C 196.226562 166.070312 195.71875 165.578125 195.71875 164.976562 C 195.71875 164.375 196.226562 163.882812 196.851562 163.882812 Z M 200.425781 163.882812 C 201.050781 163.882812 201.558594 164.375 201.558594 164.976562 C 201.558594 165.578125 201.050781 166.070312 200.425781 166.070312 C 199.796875 166.070312 199.292969 165.578125 199.292969 164.976562 C 199.292969 164.375 199.796875 163.882812 200.425781 163.882812 Z M 204 163.882812 C 204.625 163.882812 205.132812 164.375 205.132812 164.976562 C 205.132812 165.578125 204.625 166.070312 204 166.070312 C 203.371094 166.070312 202.867188 165.578125 202.867188 164.976562 C 202.867188 164.375 203.371094 163.882812 204 163.882812 Z M 107.722656 164.609375 L 113.667969 164.609375 C 113.960938 164.609375 114.191406 164.773438 114.191406 164.976562 C 114.191406 165.179688 113.960938 165.34375 113.667969 165.34375 L 107.722656 165.34375 C 107.433594 165.34375 107.199219 165.179688 107.199219 164.976562 C 107.199219 164.773438 107.433594 164.609375 107.722656 164.609375 Z M 107.722656 164.609375 " fill-opacity="1" fill-rule="nonzero"/></g><g clip-path="url(#id2)"><path fill="#f8f8f8" d="M 113.863281 105.410156 L 197.855469 105.410156 L 197.855469 160.910156 L 113.863281 160.910156 L 113.863281 105.410156 " fill-opacity="1" fill-rule="nonzero"/></g><path fill="#f8f8f8" d="M 84.601562 166.078125 L 61.613281 166.078125 L 62.507812 156.273438 L 62.804688 153.003906 L 63.253906 151.371094 L 82.960938 151.371094 L 83.40625 153.003906 L 83.707031 156.273438 Z M 84.601562 166.078125 " fill-opacity="1" fill-rule="nonzero"/><path fill="#f8f8f8" d="M 83.707031 156.273438 L 62.507812 156.273438 L 62.804688 153.003906 L 63.253906 151.371094 L 82.960938 151.371094 L 83.40625 153.003906 Z M 83.707031 156.273438 " fill-opacity="1" fill-rule="nonzero"/><path fill="#f8f8f8" d="M 32.050781 77.84375 L 114.164062 77.84375 C 114.484375 77.84375 114.804688 77.875 115.125 77.9375 C 115.441406 78 115.75 78.09375 116.046875 78.21875 C 116.347656 78.339844 116.628906 78.492188 116.898438 78.671875 C 117.167969 78.847656 117.417969 79.054688 117.644531 79.28125 C 117.875 79.507812 118.078125 79.753906 118.257812 80.023438 C 118.4375 80.289062 118.589844 80.574219 118.714844 80.871094 C 118.839844 81.167969 118.929688 81.472656 118.996094 81.789062 C 119.058594 82.105469 119.089844 82.425781 119.089844 82.746094 L 119.089844 148.105469 C 119.089844 148.425781 119.058594 148.746094 118.996094 149.058594 C 118.929688 149.375 118.839844 149.683594 118.714844 149.980469 C 118.589844 150.277344 118.4375 150.558594 118.257812 150.828125 C 118.078125 151.09375 117.875 151.34375 117.644531 151.570312 C 117.417969 151.796875 117.167969 152 116.898438 152.179688 C 116.628906 152.359375 116.347656 152.507812 116.046875 152.632812 C 115.75 152.753906 115.441406 152.847656 115.125 152.910156 C 114.804688 152.972656 114.484375 153.003906 114.164062 153.003906 L 32.050781 153.003906 C 31.730469 153.003906 31.40625 152.972656 31.089844 152.910156 C 30.773438 152.847656 30.464844 152.753906 30.167969 152.632812 C 29.867188 152.507812 29.582031 152.359375 29.316406 152.179688 C 29.046875 152 28.796875 151.796875 28.570312 151.570312 C 28.339844 151.34375 28.136719 151.09375 27.957031 150.828125 C 27.777344 150.558594 27.625 150.277344 27.5 149.980469 C 27.375 149.683594 27.28125 149.375 27.21875 149.058594 C 27.15625 148.746094 27.125 148.425781 27.125 148.105469 L 27.125 82.746094 C 27.125 82.425781 27.15625 82.105469 27.21875 81.789062 C 27.28125 81.472656 27.375 81.167969 27.5 80.871094 C 27.625 80.574219 27.777344 80.289062 27.957031 80.023438 C 28.136719 79.753906 28.339844 79.507812 28.570312 79.28125 C 28.796875 79.054688 29.046875 78.847656 29.316406 78.671875 C 29.582031 78.492188 29.867188 78.339844 30.167969 78.21875 C 30.464844 78.09375 30.773438 78 31.089844 77.9375 C 31.40625 77.875 31.730469 77.84375 32.050781 77.84375 Z M 32.050781 77.84375 " fill-opacity="1" fill-rule="nonzero"/><path fill="#f8f8f8" d="M 27.125 90.917969 L 119.089844 90.917969 L 119.089844 139.933594 L 27.125 139.933594 Z M 27.125 90.917969 " fill-opacity="1" fill-rule="nonzero"/><path fill="#f8f8f8" d="M 32.050781 77.84375 L 114.164062 77.84375 C 114.484375 77.84375 114.804688 77.875 115.125 77.9375 C 115.441406 78 115.75 78.09375 116.046875 78.21875 C 116.347656 78.339844 116.628906 78.492188 116.898438 78.671875 C 117.167969 78.847656 117.417969 79.054688 117.644531 79.28125 C 117.875 79.507812 118.078125 79.753906 118.257812 80.023438 C 118.4375 80.289062 118.589844 80.574219 118.714844 80.871094 C 118.839844 81.167969 118.929688 81.472656 118.996094 81.789062 C 119.058594 82.105469 119.089844 82.425781 119.089844 82.746094 L 119.089844 90.917969 L 27.125 90.917969 L 27.125 82.746094 C 27.125 82.425781 27.15625 82.105469 27.21875 81.789062 C 27.28125 81.472656 27.375 81.167969 27.5 80.871094 C 27.625 80.574219 27.777344 80.289062 27.957031 80.023438 C 28.136719 79.753906 28.339844 79.507812 28.570312 79.28125 C 28.796875 79.054688 29.046875 78.847656 29.316406 78.671875 C 29.582031 78.492188 29.867188 78.339844 30.167969 78.21875 C 30.464844 78.09375 30.773438 78 31.089844 77.9375 C 31.40625 77.875 31.730469 77.84375 32.050781 77.84375 Z M 32.050781 77.84375 " fill-opacity="1" fill-rule="nonzero"/><path fill="#212549" d="M 32.050781 82.746094 L 35.335938 82.746094 L 35.335938 86.015625 L 32.050781 86.015625 Z M 32.050781 82.746094 " fill-opacity="1" fill-rule="nonzero"/><path fill="#212549" d="M 38.621094 82.746094 L 41.90625 82.746094 L 41.90625 86.015625 L 38.621094 86.015625 Z M 38.621094 82.746094 " fill-opacity="1" fill-rule="nonzero"/><path fill="#212549" d="M 45.191406 82.746094 L 48.472656 82.746094 L 48.472656 86.015625 L 45.191406 86.015625 Z M 45.191406 82.746094 " fill-opacity="1" fill-rule="nonzero"/><g clip-path="url(#id3)"><path fill="#212549" d="M 114.164062 76.210938 L 32.050781 76.210938 C 31.621094 76.210938 31.195312 76.253906 30.769531 76.335938 C 30.347656 76.421875 29.9375 76.546875 29.539062 76.710938 C 29.140625 76.875 28.761719 77.074219 28.40625 77.316406 C 28.046875 77.554688 27.714844 77.824219 27.410156 78.128906 C 27.105469 78.429688 26.832031 78.761719 26.59375 79.117188 C 26.351562 79.472656 26.152344 79.851562 25.984375 80.246094 C 25.820312 80.644531 25.695312 81.050781 25.609375 81.472656 C 25.527344 81.894531 25.484375 82.316406 25.484375 82.746094 L 25.484375 148.105469 C 25.484375 148.53125 25.527344 148.957031 25.609375 149.378906 C 25.695312 149.796875 25.820312 150.207031 25.984375 150.605469 C 26.152344 151 26.351562 151.375 26.59375 151.734375 C 26.832031 152.089844 27.105469 152.417969 27.410156 152.722656 C 27.714844 153.027344 28.046875 153.296875 28.40625 153.535156 C 28.761719 153.773438 29.140625 153.976562 29.539062 154.140625 C 29.9375 154.304688 30.347656 154.429688 30.769531 154.511719 C 31.195312 154.597656 31.621094 154.640625 32.050781 154.640625 L 61.007812 154.640625 L 60.113281 164.441406 L 55.042969 164.441406 L 55.042969 167.710938 L 91.171875 167.710938 L 91.171875 164.441406 L 86.101562 164.441406 L 85.207031 154.640625 L 114.164062 154.640625 C 114.59375 154.640625 115.019531 154.597656 115.445312 154.511719 C 115.867188 154.429688 116.277344 154.304688 116.675781 154.140625 C 117.074219 153.976562 117.453125 153.773438 117.808594 153.535156 C 118.167969 153.296875 118.5 153.027344 118.804688 152.722656 C 119.109375 152.417969 119.382812 152.089844 119.621094 151.734375 C 119.863281 151.375 120.0625 151 120.230469 150.605469 C 120.394531 150.207031 120.519531 149.796875 120.605469 149.378906 C 120.6875 148.957031 120.730469 148.53125 120.730469 148.105469 L 120.730469 82.746094 C 120.730469 82.316406 120.6875 81.894531 120.605469 81.472656 C 120.519531 81.050781 120.394531 80.644531 120.230469 80.246094 C 120.0625 79.851562 119.863281 79.472656 119.621094 79.117188 C 119.382812 78.761719 119.109375 78.429688 118.804688 78.128906 C 118.5 77.824219 118.167969 77.554688 117.808594 77.3125 C 117.453125 77.074219 117.074219 76.875 116.675781 76.710938 C 116.277344 76.546875 115.867188 76.421875 115.445312 76.335938 C 115.019531 76.253906 114.59375 76.210938 114.164062 76.210938 Z M 32.050781 79.480469 L 114.164062 79.480469 C 114.597656 79.480469 115.015625 79.5625 115.417969 79.726562 C 115.820312 79.894531 116.175781 80.128906 116.484375 80.4375 C 116.792969 80.742188 117.027344 81.097656 117.195312 81.496094 C 117.363281 81.898438 117.445312 82.3125 117.445312 82.746094 L 117.445312 89.28125 L 28.769531 89.28125 L 28.769531 82.746094 C 28.769531 82.3125 28.851562 81.898438 29.019531 81.496094 C 29.183594 81.097656 29.421875 80.742188 29.730469 80.4375 C 30.039062 80.128906 30.394531 79.894531 30.796875 79.726562 C 31.199219 79.5625 31.617188 79.480469 32.050781 79.480469 Z M 117.445312 92.550781 L 117.445312 138.300781 L 28.769531 138.300781 L 28.769531 92.550781 Z M 82.804688 164.441406 L 63.410156 164.441406 L 64.304688 154.640625 L 81.910156 154.640625 Z M 114.164062 151.371094 L 32.050781 151.371094 C 31.617188 151.371094 31.199219 151.289062 30.796875 151.121094 C 30.394531 150.957031 30.039062 150.71875 29.730469 150.414062 C 29.421875 150.105469 29.183594 149.753906 29.019531 149.355469 C 28.851562 148.953125 28.769531 148.535156 28.769531 148.105469 L 28.769531 141.566406 L 117.445312 141.566406 L 117.445312 148.105469 C 117.445312 148.535156 117.363281 148.953125 117.195312 149.355469 C 117.027344 149.753906 116.792969 150.105469 116.484375 150.414062 C 116.175781 150.71875 115.820312 150.957031 115.417969 151.121094 C 115.015625 151.289062 114.597656 151.371094 114.164062 151.371094 Z M 114.164062 151.371094 " fill-opacity="1" fill-rule="nonzero"/></g><path fill="#212549" d="M 71.464844 144.835938 L 74.75 144.835938 L 74.75 148.105469 L 71.464844 148.105469 Z M 71.464844 144.835938 " fill-opacity="1" fill-rule="nonzero"/><path fill="#212549" d="M 33.695312 110.523438 L 36.980469 110.523438 L 36.980469 113.792969 L 33.695312 113.792969 Z M 33.695312 110.523438 " fill-opacity="1" fill-rule="nonzero"/><path fill="#212549" d="M 40.261719 110.523438 L 64.894531 110.523438 L 64.894531 113.792969 L 40.261719 113.792969 Z M 40.261719 110.523438 " fill-opacity="1" fill-rule="nonzero"/><path fill="#212549" d="M 33.695312 117.058594 L 36.980469 117.058594 L 36.980469 120.328125 L 33.695312 120.328125 Z M 33.695312 117.058594 " fill-opacity="1" fill-rule="nonzero"/><path fill="#212549" d="M 40.261719 117.058594 L 82.960938 117.058594 L 82.960938 120.328125 L 40.261719 120.328125 Z M 40.261719 117.058594 " fill-opacity="1" fill-rule="nonzero"/><path fill="#212549" d="M 33.695312 123.59375 L 36.980469 123.59375 L 36.980469 126.863281 L 33.695312 126.863281 Z M 33.695312 123.59375 " fill-opacity="1" fill-rule="nonzero"/><path fill="#212549" d="M 40.261719 123.59375 L 71.464844 123.59375 L 71.464844 126.863281 L 40.261719 126.863281 Z M 40.261719 123.59375 " fill-opacity="1" fill-rule="nonzero"/><path fill="#212549" d="M 33.695312 130.128906 L 36.980469 130.128906 L 36.980469 133.398438 L 33.695312 133.398438 Z M 33.695312 130.128906 " fill-opacity="1" fill-rule="nonzero"/><path fill="#212549" d="M 40.261719 130.128906 L 87.886719 130.128906 L 87.886719 133.398438 L 40.261719 133.398438 Z M 40.261719 130.128906 " fill-opacity="1" fill-rule="nonzero"/><path fill="#212549" d="M 34.175781 103.507812 L 37.460938 106.777344 L 39.78125 104.464844 L 37.660156 102.355469 L 39.78125 100.242188 L 37.460938 97.929688 L 34.175781 101.199219 C 34.019531 101.351562 33.902344 101.527344 33.820312 101.726562 C 33.734375 101.929688 33.695312 102.136719 33.695312 102.355469 C 33.695312 102.570312 33.734375 102.777344 33.820312 102.980469 C 33.902344 103.179688 34.019531 103.355469 34.175781 103.507812 Z M 34.175781 103.507812 " fill-opacity="1" fill-rule="nonzero"/><path fill="#212549" d="M 50.597656 104.464844 L 52.917969 106.777344 L 56.203125 103.507812 C 56.359375 103.355469 56.476562 103.179688 56.558594 102.980469 C 56.644531 102.777344 56.683594 102.570312 56.683594 102.355469 C 56.683594 102.136719 56.644531 101.929688 56.558594 101.726562 C 56.476562 101.527344 56.359375 101.351562 56.203125 101.199219 L 52.917969 97.929688 L 50.597656 100.242188 L 52.722656 102.355469 Z M 50.597656 104.464844 " fill-opacity="1" fill-rule="nonzero"/><path fill="#212549" d="M 41.988281 106.738281 L 45.273438 96.933594 L 48.390625 97.96875 L 45.105469 107.773438 Z M 41.988281 106.738281 " fill-opacity="1" fill-rule="nonzero"/><path fill="#212549" d="M 86.246094 117.058594 L 96.097656 117.058594 L 96.097656 120.328125 L 86.246094 120.328125 Z M 86.246094 117.058594 " fill-opacity="1" fill-rule="nonzero"/><path fill="#212549" d="M 91.171875 130.128906 L 94.457031 130.128906 L 94.457031 133.398438 L 91.171875 133.398438 Z M 91.171875 130.128906 " fill-opacity="1" fill-rule="nonzero"/><path fill="#212549" d="M 97.742188 130.128906 L 101.023438 130.128906 L 101.023438 133.398438 L 97.742188 133.398438 Z M 97.742188 130.128906 " fill-opacity="1" fill-rule="nonzero"/><path fill="#212549" d="M 68.179688 110.523438 L 71.464844 110.523438 L 71.464844 113.792969 L 68.179688 113.792969 Z M 68.179688 110.523438 " fill-opacity="1" fill-rule="nonzero"/><g clip-path="url(#id4)"><path fill="#f8f8f8" d="M 2.015625 108.46875 L 35.015625 108.46875 L 35.015625 166.207031 L 2.015625 166.207031 L 2.015625 108.46875 " fill-opacity="1" fill-rule="nonzero"/></g><g clip-path="url(#id5)"><path fill="#212549" d="M 30.191406 106.457031 L 7.164062 106.457031 C 3.386719 106.457031 0.3125 109.527344 0.3125 113.296875 L 0.3125 161.117188 C 0.3125 164.886719 3.386719 167.953125 7.164062 167.953125 L 30.191406 167.953125 C 33.96875 167.953125 37.042969 164.886719 37.042969 161.117188 L 37.042969 113.296875 C 37.042969 109.527344 33.96875 106.457031 30.191406 106.457031 Z M 2.308594 114.292969 L 35.046875 114.292969 L 35.046875 155.613281 L 2.308594 155.613281 Z M 7.164062 108.449219 L 30.191406 108.449219 C 32.527344 108.449219 34.484375 110.105469 34.945312 112.300781 L 2.410156 112.300781 C 2.871094 110.105469 4.828125 108.449219 7.164062 108.449219 Z M 30.191406 165.964844 L 7.164062 165.964844 C 4.484375 165.964844 2.308594 163.789062 2.308594 161.117188 L 2.308594 157.601562 L 35.046875 157.601562 L 35.046875 161.117188 C 35.046875 163.789062 32.871094 165.964844 30.191406 165.964844 Z M 30.191406 165.964844 " fill-opacity="1" fill-rule="nonzero"/></g><path fill="#212549" d="M 18.675781 158.882812 C 17.089844 158.882812 15.796875 160.171875 15.796875 161.757812 C 15.796875 163.339844 17.089844 164.628906 18.675781 164.628906 C 20.265625 164.628906 21.558594 163.339844 21.558594 161.757812 C 21.558594 160.171875 20.265625 158.882812 18.675781 158.882812 Z M 18.675781 162.640625 C 18.191406 162.640625 17.792969 162.242188 17.792969 161.757812 C 17.792969 161.269531 18.191406 160.875 18.675781 160.875 C 19.164062 160.875 19.5625 161.269531 19.5625 161.757812 C 19.5625 162.242188 19.164062 162.640625 18.675781 162.640625 Z M 18.675781 162.640625 " fill-opacity="1" fill-rule="nonzero"/><g clip-path="url(#id6)"><path fill="#212549" d="M 176.460938 70.355469 C 173.75 67.636719 170.589844 65.53125 167.066406 64.097656 C 163.660156 62.714844 160.066406 62.011719 156.378906 62.011719 C 152.695312 62.011719 149.101562 62.714844 145.695312 64.097656 C 142.171875 65.53125 139.011719 67.636719 136.300781 70.355469 C 135.390625 71.261719 135.390625 72.738281 136.300781 73.644531 C 137.207031 74.554688 138.679688 74.554688 139.585938 73.644531 C 148.847656 64.367188 163.914062 64.367188 173.175781 73.644531 C 173.628906 74.101562 174.222656 74.328125 174.820312 74.328125 C 175.414062 74.328125 176.007812 74.101562 176.460938 73.644531 C 177.367188 72.738281 177.367188 71.261719 176.460938 70.355469 Z M 176.460938 70.355469 " fill-opacity="1" fill-rule="nonzero"/></g><path fill="#212549" d="M 156.378906 70.257812 C 150.6875 70.257812 145.339844 72.480469 141.308594 76.515625 C 140.402344 77.421875 140.402344 78.898438 141.308594 79.804688 C 142.21875 80.714844 143.6875 80.714844 144.597656 79.804688 C 151.09375 73.296875 161.664062 73.296875 168.160156 79.804688 C 168.613281 80.261719 169.207031 80.488281 169.800781 80.488281 C 170.398438 80.488281 170.992188 80.261719 171.445312 79.804688 C 172.351562 78.898438 172.351562 77.421875 171.445312 76.515625 C 167.417969 72.480469 162.066406 70.257812 156.378906 70.257812 Z M 156.378906 70.257812 " fill-opacity="1" fill-rule="nonzero"/><path fill="#212549" d="M 156.378906 78.675781 C 152.902344 78.675781 149.628906 80.03125 147.167969 82.5 C 146.261719 83.40625 146.261719 84.882812 147.167969 85.789062 C 148.078125 86.699219 149.546875 86.699219 150.453125 85.789062 C 153.722656 82.519531 159.035156 82.519531 162.300781 85.789062 C 162.753906 86.246094 163.347656 86.472656 163.945312 86.472656 C 164.539062 86.472656 165.132812 86.246094 165.585938 85.789062 C 166.492188 84.882812 166.492188 83.40625 165.585938 82.5 C 163.125 80.03125 159.855469 78.675781 156.378906 78.675781 Z M 156.378906 78.675781 " fill-opacity="1" fill-rule="nonzero"/><g clip-path="url(#id7)"><path fill="#212549" d="M 158.296875 88.582031 C 158.296875 88.839844 158.25 89.085938 158.152344 89.324219 C 158.054688 89.558594 157.914062 89.769531 157.734375 89.949219 C 157.550781 90.132812 157.34375 90.269531 157.105469 90.371094 C 156.871094 90.46875 156.625 90.515625 156.367188 90.515625 C 156.113281 90.515625 155.867188 90.46875 155.628906 90.371094 C 155.394531 90.269531 155.183594 90.132812 155.003906 89.949219 C 154.824219 89.769531 154.683594 89.558594 154.585938 89.324219 C 154.488281 89.085938 154.4375 88.839844 154.4375 88.582031 C 154.4375 88.328125 154.488281 88.082031 154.585938 87.84375 C 154.683594 87.605469 154.824219 87.398438 155.003906 87.214844 C 155.183594 87.035156 155.394531 86.894531 155.628906 86.796875 C 155.867188 86.699219 156.113281 86.648438 156.367188 86.648438 C 156.625 86.648438 156.871094 86.699219 157.105469 86.796875 C 157.34375 86.894531 157.550781 87.035156 157.734375 87.214844 C 157.914062 87.398438 158.054688 87.605469 158.152344 87.84375 C 158.25 88.082031 158.296875 88.328125 158.296875 88.582031 Z M 158.296875 88.582031 " fill-opacity="1" fill-rule="nonzero"/></g></svg>