<svg xmlns="http://www.w3.org/2000/svg" xmlns:xlink="http://www.w3.org/1999/xlink" width="400" zoomAndPan="magnify" viewBox="0 0 300 239.999995" height="320" preserveAspectRatio="xMidYMid meet" version="1.0"><defs><clipPath id="id1"><path d="M 147 147.332031 L 300 147.332031 L 300 240 L 147 240 Z M 147 147.332031 " clip-rule="nonzero"/></clipPath><clipPath id="id2"><path d="M 162.65625 150.53125 L 281.90625 150.53125 L 281.90625 230.03125 L 162.65625 230.03125 Z M 162.65625 150.53125 " clip-rule="nonzero"/></clipPath><clipPath id="id3"><path d="M 36.402344 108.816406 L 172.152344 108.816406 L 172.152344 240 L 36.402344 240 Z M 36.402344 108.816406 " clip-rule="nonzero"/></clipPath><clipPath id="id4"><path d="M 2.882812 154.949219 L 50.132812 154.949219 L 50.132812 237.449219 L 2.882812 237.449219 Z M 2.882812 154.949219 " clip-rule="nonzero"/></clipPath><clipPath id="id5"><path d="M 0 152.027344 L 52.5 152.027344 L 52.5 239.777344 L 0 239.777344 Z M 0 152.027344 " clip-rule="nonzero"/></clipPath><clipPath id="id6"><path d="M 193.402344 88.59375 L 253.402344 88.59375 L 253.402344 107 L 193.402344 107 Z M 193.402344 88.59375 " clip-rule="nonzero"/></clipPath><clipPath id="id7"><path d="M 220 123 L 227 123 L 227 129.09375 L 220 129.09375 Z M 220 123 " clip-rule="nonzero"/></clipPath></defs><g clip-path="url(#id1)"><path fill="#212549" d="M 164.914062 147.332031 C 162.542969 147.332031 160.628906 149.207031 160.628906 151.535156 L 160.628906 228.367188 C 160.628906 230.582031 160.320312 232.382812 162.328125 232.554688 L 148.246094 232.554688 C 146.582031 232.554688 147.433594 233.855469 147.433594 235.472656 L 147.433594 237.417969 C 147.433594 239.03125 148.773438 240.332031 150.441406 240.332031 L 296.335938 240.332031 C 298.003906 240.332031 299.34375 239.03125 299.34375 237.417969 L 299.34375 235.472656 C 299.34375 233.855469 300.195312 232.554688 298.53125 232.554688 L 284.449219 232.554688 C 286.457031 232.382812 286.148438 230.582031 286.148438 228.367188 L 286.148438 151.535156 C 286.148438 149.207031 284.238281 147.332031 281.863281 147.332031 Z M 201.933594 148.351562 C 202.542969 148.351562 203.039062 148.835938 203.039062 149.433594 C 203.039062 150.03125 202.542969 150.515625 201.933594 150.515625 C 201.324219 150.515625 200.832031 150.03125 200.832031 149.433594 C 200.832031 148.835938 201.324219 148.351562 201.933594 148.351562 Z M 164.8125 151.542969 L 281.96875 151.542969 L 281.96875 228.359375 L 164.8125 228.359375 Z M 204.34375 232.570312 L 242.433594 232.570312 C 242.378906 233.382812 241.8125 234.015625 241.121094 234.015625 L 205.65625 234.015625 C 204.964844 234.015625 204.398438 233.382812 204.34375 232.570312 Z M 281.6875 234.871094 C 282.582031 234.871094 283.308594 235.574219 283.308594 236.445312 C 283.308594 237.316406 282.582031 238.019531 281.6875 238.019531 C 280.789062 238.019531 280.0625 237.316406 280.0625 236.445312 C 280.0625 235.574219 280.789062 234.871094 281.6875 234.871094 Z M 286.808594 234.871094 C 287.707031 234.871094 288.433594 235.574219 288.433594 236.445312 C 288.433594 237.316406 287.707031 238.019531 286.808594 238.019531 C 285.914062 238.019531 285.183594 237.316406 285.183594 236.445312 C 285.183594 235.574219 285.914062 234.871094 286.808594 234.871094 Z M 291.933594 234.871094 C 292.828125 234.871094 293.558594 235.574219 293.558594 236.445312 C 293.558594 237.316406 292.828125 238.019531 291.933594 238.019531 C 291.035156 238.019531 290.308594 237.316406 290.308594 236.445312 C 290.308594 235.574219 291.035156 234.871094 291.933594 234.871094 Z M 153.917969 235.914062 L 162.441406 235.914062 C 162.855469 235.914062 163.191406 236.148438 163.191406 236.445312 C 163.191406 236.738281 162.855469 236.976562 162.441406 236.976562 L 153.917969 236.976562 C 153.5 236.976562 153.164062 236.738281 153.164062 236.445312 C 153.164062 236.148438 153.5 235.914062 153.917969 235.914062 Z M 153.917969 235.914062 " fill-opacity="1" fill-rule="nonzero"/></g><g clip-path="url(#id2)"><path fill="#f8f8f8" d="M 162.65625 150.53125 L 281.90625 150.53125 L 281.90625 230.03125 L 162.65625 230.03125 L 162.65625 150.53125 " fill-opacity="1" fill-rule="nonzero"/></g><path fill="#f8f8f8" d="M 120.660156 237.722656 L 87.894531 237.722656 L 89.597656 218.972656 L 90.234375 216.628906 L 118.320312 216.628906 L 118.957031 218.972656 L 119.386719 223.660156 Z M 120.660156 237.722656 " fill-opacity="1" fill-rule="nonzero"/><path fill="#f8f8f8" d="M 119.386719 223.660156 L 89.171875 223.660156 L 89.597656 218.972656 L 90.234375 216.628906 L 118.320312 216.628906 L 118.957031 218.972656 Z M 119.386719 223.660156 " fill-opacity="1" fill-rule="nonzero"/><path fill="#f8f8f8" d="M 45.765625 111.160156 L 162.789062 111.160156 C 163.25 111.160156 163.707031 111.203125 164.160156 111.292969 C 164.613281 111.382812 165.050781 111.515625 165.476562 111.695312 C 165.902344 111.871094 166.308594 112.085938 166.691406 112.34375 C 167.074219 112.601562 167.429688 112.890625 167.753906 113.21875 C 168.082031 113.542969 168.371094 113.898438 168.628906 114.285156 C 168.882812 114.667969 169.101562 115.074219 169.277344 115.5 C 169.453125 115.925781 169.585938 116.367188 169.675781 116.820312 C 169.765625 117.269531 169.8125 117.730469 169.8125 118.191406 L 169.8125 211.941406 C 169.8125 212.402344 169.765625 212.859375 169.675781 213.3125 C 169.585938 213.765625 169.453125 214.203125 169.277344 214.632812 C 169.101562 215.058594 168.882812 215.460938 168.628906 215.847656 C 168.371094 216.230469 168.082031 216.585938 167.753906 216.914062 C 167.429688 217.238281 167.074219 217.53125 166.691406 217.785156 C 166.308594 218.042969 165.902344 218.257812 165.476562 218.4375 C 165.050781 218.613281 164.613281 218.746094 164.160156 218.835938 C 163.707031 218.925781 163.25 218.972656 162.789062 218.972656 L 45.765625 218.972656 C 45.304688 218.972656 44.847656 218.925781 44.398438 218.835938 C 43.945312 218.746094 43.503906 218.613281 43.078125 218.4375 C 42.652344 218.257812 42.25 218.042969 41.867188 217.785156 C 41.480469 217.53125 41.128906 217.238281 40.800781 216.914062 C 40.476562 216.585938 40.183594 216.230469 39.929688 215.847656 C 39.671875 215.460938 39.457031 215.058594 39.28125 214.632812 C 39.101562 214.203125 38.96875 213.765625 38.878906 213.3125 C 38.789062 212.859375 38.746094 212.402344 38.746094 211.941406 L 38.746094 118.191406 C 38.746094 117.730469 38.789062 117.269531 38.878906 116.820312 C 38.96875 116.367188 39.101562 115.925781 39.28125 115.5 C 39.457031 115.074219 39.671875 114.667969 39.929688 114.285156 C 40.183594 113.898438 40.476562 113.542969 40.800781 113.21875 C 41.128906 112.890625 41.480469 112.601562 41.867188 112.34375 C 42.25 112.085938 42.652344 111.871094 43.078125 111.695312 C 43.503906 111.515625 43.945312 111.382812 44.398438 111.292969 C 44.847656 111.203125 45.304688 111.160156 45.765625 111.160156 Z M 45.765625 111.160156 " fill-opacity="1" fill-rule="nonzero"/><path fill="#f8f8f8" d="M 38.746094 129.910156 L 169.8125 129.910156 L 169.8125 200.222656 L 38.746094 200.222656 Z M 38.746094 129.910156 " fill-opacity="1" fill-rule="nonzero"/><path fill="#f8f8f8" d="M 45.765625 111.160156 L 162.789062 111.160156 C 163.25 111.160156 163.707031 111.203125 164.160156 111.292969 C 164.613281 111.382812 165.050781 111.515625 165.476562 111.695312 C 165.902344 111.871094 166.308594 112.085938 166.691406 112.34375 C 167.074219 112.601562 167.429688 112.890625 167.753906 113.21875 C 168.082031 113.542969 168.371094 113.898438 168.628906 114.285156 C 168.882812 114.667969 169.101562 115.074219 169.277344 115.5 C 169.453125 115.925781 169.585938 116.367188 169.675781 116.820312 C 169.765625 117.269531 169.8125 117.730469 169.8125 118.191406 L 169.8125 129.910156 L 38.746094 129.910156 L 38.746094 118.191406 C 38.746094 117.730469 38.789062 117.269531 38.878906 116.820312 C 38.96875 116.367188 39.101562 115.925781 39.28125 115.5 C 39.457031 115.074219 39.671875 114.667969 39.929688 114.285156 C 40.183594 113.898438 40.476562 113.542969 40.800781 113.21875 C 41.128906 112.890625 41.480469 112.601562 41.867188 112.34375 C 42.25 112.085938 42.652344 111.871094 43.078125 111.695312 C 43.503906 111.515625 43.945312 111.382812 44.398438 111.292969 C 44.847656 111.203125 45.304688 111.160156 45.765625 111.160156 Z M 45.765625 111.160156 " fill-opacity="1" fill-rule="nonzero"/><path fill="#212549" d="M 45.765625 118.191406 L 50.449219 118.191406 L 50.449219 122.878906 L 45.765625 122.878906 Z M 45.765625 118.191406 " fill-opacity="1" fill-rule="nonzero"/><path fill="#212549" d="M 55.128906 118.191406 L 59.808594 118.191406 L 59.808594 122.878906 L 55.128906 122.878906 Z M 55.128906 118.191406 " fill-opacity="1" fill-rule="nonzero"/><path fill="#212549" d="M 64.492188 118.191406 L 69.171875 118.191406 L 69.171875 122.878906 L 64.492188 122.878906 Z M 64.492188 118.191406 " fill-opacity="1" fill-rule="nonzero"/><g clip-path="url(#id3)"><path fill="#212549" d="M 162.789062 108.816406 L 45.765625 108.816406 C 45.152344 108.816406 44.542969 108.875 43.941406 108.996094 C 43.339844 109.117188 42.753906 109.296875 42.183594 109.53125 C 41.617188 109.765625 41.078125 110.054688 40.566406 110.398438 C 40.058594 110.742188 39.585938 111.128906 39.148438 111.5625 C 38.714844 112 38.328125 112.472656 37.984375 112.984375 C 37.644531 113.496094 37.355469 114.035156 37.121094 114.605469 C 36.882812 115.171875 36.707031 115.757812 36.585938 116.363281 C 36.464844 116.964844 36.40625 117.574219 36.40625 118.191406 L 36.40625 211.941406 C 36.40625 212.554688 36.464844 213.164062 36.585938 213.769531 C 36.707031 214.371094 36.882812 214.957031 37.121094 215.527344 C 37.355469 216.09375 37.644531 216.632812 37.984375 217.144531 C 38.328125 217.65625 38.714844 218.132812 39.148438 218.566406 C 39.585938 219 40.058594 219.390625 40.566406 219.730469 C 41.078125 220.074219 41.617188 220.363281 42.183594 220.597656 C 42.753906 220.835938 43.339844 221.011719 43.941406 221.132812 C 44.542969 221.253906 45.152344 221.316406 45.765625 221.316406 L 87.035156 221.316406 L 85.757812 235.378906 L 78.53125 235.378906 L 78.53125 240.066406 L 130.023438 240.066406 L 130.023438 235.378906 L 122.800781 235.378906 L 121.523438 221.316406 L 162.789062 221.316406 C 163.40625 221.316406 164.011719 221.253906 164.617188 221.132812 C 165.21875 221.011719 165.804688 220.835938 166.371094 220.597656 C 166.9375 220.363281 167.476562 220.074219 167.988281 219.730469 C 168.5 219.390625 168.972656 219 169.40625 218.566406 C 169.839844 218.132812 170.230469 217.65625 170.570312 217.144531 C 170.914062 216.632812 171.199219 216.09375 171.4375 215.527344 C 171.671875 214.957031 171.851562 214.371094 171.96875 213.769531 C 172.089844 213.164062 172.152344 212.554688 172.152344 211.941406 L 172.152344 118.191406 C 172.152344 117.574219 172.089844 116.964844 171.96875 116.363281 C 171.851562 115.757812 171.671875 115.171875 171.4375 114.605469 C 171.199219 114.035156 170.914062 113.496094 170.570312 112.984375 C 170.230469 112.472656 169.839844 112 169.40625 111.5625 C 168.972656 111.128906 168.5 110.742188 167.988281 110.398438 C 167.476562 110.054688 166.9375 109.765625 166.371094 109.53125 C 165.804688 109.296875 165.21875 109.117188 164.617188 108.996094 C 164.011719 108.875 163.40625 108.816406 162.789062 108.816406 Z M 45.765625 113.503906 L 162.789062 113.503906 C 163.097656 113.503906 163.402344 113.535156 163.703125 113.59375 C 164.003906 113.652344 164.296875 113.742188 164.582031 113.859375 C 164.863281 113.980469 165.132812 114.125 165.390625 114.292969 C 165.644531 114.464844 165.882812 114.660156 166.097656 114.878906 C 166.316406 115.09375 166.511719 115.332031 166.679688 115.585938 C 166.851562 115.84375 166.996094 116.113281 167.113281 116.398438 C 167.230469 116.679688 167.320312 116.972656 167.378906 117.277344 C 167.441406 117.578125 167.472656 117.882812 167.472656 118.191406 L 167.472656 127.566406 L 41.085938 127.566406 L 41.085938 118.191406 C 41.085938 117.882812 41.117188 117.578125 41.175781 117.277344 C 41.238281 116.972656 41.324219 116.679688 41.441406 116.398438 C 41.5625 116.113281 41.707031 115.84375 41.875 115.585938 C 42.046875 115.332031 42.242188 115.09375 42.457031 114.878906 C 42.675781 114.660156 42.910156 114.464844 43.167969 114.292969 C 43.421875 114.125 43.691406 113.980469 43.976562 113.859375 C 44.261719 113.742188 44.550781 113.652344 44.855469 113.59375 C 45.15625 113.535156 45.460938 113.503906 45.765625 113.503906 Z M 167.472656 132.253906 L 167.472656 197.878906 L 41.085938 197.878906 L 41.085938 132.253906 Z M 118.097656 235.378906 L 90.457031 235.378906 L 91.734375 221.316406 L 116.820312 221.316406 Z M 162.789062 216.628906 L 45.765625 216.628906 C 45.460938 216.628906 45.15625 216.597656 44.855469 216.535156 C 44.550781 216.476562 44.261719 216.386719 43.976562 216.269531 C 43.691406 216.152344 43.421875 216.007812 43.167969 215.835938 C 42.910156 215.664062 42.675781 215.472656 42.457031 215.253906 C 42.242188 215.035156 42.046875 214.800781 41.875 214.542969 C 41.707031 214.289062 41.5625 214.015625 41.441406 213.734375 C 41.324219 213.449219 41.238281 213.15625 41.175781 212.855469 C 41.117188 212.550781 41.085938 212.246094 41.085938 211.941406 L 41.085938 202.566406 L 167.472656 202.566406 L 167.472656 211.941406 C 167.472656 212.246094 167.441406 212.550781 167.378906 212.855469 C 167.320312 213.15625 167.230469 213.449219 167.113281 213.734375 C 166.996094 214.015625 166.851562 214.289062 166.679688 214.542969 C 166.511719 214.800781 166.316406 215.035156 166.097656 215.253906 C 165.882812 215.472656 165.644531 215.664062 165.390625 215.835938 C 165.132812 216.007812 164.863281 216.152344 164.582031 216.269531 C 164.296875 216.386719 164.003906 216.476562 163.703125 216.535156 C 163.402344 216.597656 163.097656 216.628906 162.789062 216.628906 Z M 162.789062 216.628906 " fill-opacity="1" fill-rule="nonzero"/></g><path fill="#212549" d="M 101.9375 207.253906 L 106.617188 207.253906 L 106.617188 211.941406 L 101.9375 211.941406 Z M 101.9375 207.253906 " fill-opacity="1" fill-rule="nonzero"/><path fill="#212549" d="M 48.105469 158.035156 L 52.789062 158.035156 L 52.789062 162.722656 L 48.105469 162.722656 Z M 48.105469 158.035156 " fill-opacity="1" fill-rule="nonzero"/><path fill="#212549" d="M 57.46875 158.035156 L 92.574219 158.035156 L 92.574219 162.722656 L 57.46875 162.722656 Z M 57.46875 158.035156 " fill-opacity="1" fill-rule="nonzero"/><path fill="#212549" d="M 48.105469 167.410156 L 52.789062 167.410156 L 52.789062 172.097656 L 48.105469 172.097656 Z M 48.105469 167.410156 " fill-opacity="1" fill-rule="nonzero"/><path fill="#212549" d="M 57.46875 167.410156 L 118.320312 167.410156 L 118.320312 172.097656 L 57.46875 172.097656 Z M 57.46875 167.410156 " fill-opacity="1" fill-rule="nonzero"/><path fill="#212549" d="M 48.105469 176.785156 L 52.789062 176.785156 L 52.789062 181.472656 L 48.105469 181.472656 Z M 48.105469 176.785156 " fill-opacity="1" fill-rule="nonzero"/><path fill="#212549" d="M 57.46875 176.785156 L 101.9375 176.785156 L 101.9375 181.472656 L 57.46875 181.472656 Z M 57.46875 176.785156 " fill-opacity="1" fill-rule="nonzero"/><path fill="#212549" d="M 48.105469 186.160156 L 52.789062 186.160156 L 52.789062 190.847656 L 48.105469 190.847656 Z M 48.105469 186.160156 " fill-opacity="1" fill-rule="nonzero"/><path fill="#212549" d="M 57.46875 186.160156 L 125.34375 186.160156 L 125.34375 190.847656 L 57.46875 190.847656 Z M 57.46875 186.160156 " fill-opacity="1" fill-rule="nonzero"/><path fill="#212549" d="M 48.792969 147.972656 L 53.472656 152.660156 L 56.785156 149.34375 L 53.757812 146.316406 L 56.785156 143.285156 L 53.472656 139.96875 L 48.792969 144.65625 C 48.574219 144.878906 48.402344 145.132812 48.285156 145.417969 C 48.167969 145.707031 48.105469 146.003906 48.105469 146.316406 C 48.105469 146.625 48.167969 146.925781 48.285156 147.210938 C 48.402344 147.5 48.574219 147.753906 48.792969 147.972656 Z M 48.792969 147.972656 " fill-opacity="1" fill-rule="nonzero"/><path fill="#212549" d="M 72.195312 149.34375 L 75.507812 152.660156 L 80.1875 147.972656 C 80.40625 147.753906 80.578125 147.5 80.695312 147.210938 C 80.8125 146.925781 80.875 146.625 80.875 146.316406 C 80.875 146.003906 80.8125 145.707031 80.695312 145.417969 C 80.578125 145.132812 80.40625 144.878906 80.1875 144.65625 L 75.507812 139.96875 L 72.195312 143.285156 L 75.222656 146.316406 Z M 72.195312 149.34375 " fill-opacity="1" fill-rule="nonzero"/><path fill="#212549" d="M 59.929688 152.605469 L 64.609375 138.542969 L 69.050781 140.027344 L 64.371094 154.085938 Z M 59.929688 152.605469 " fill-opacity="1" fill-rule="nonzero"/><path fill="#212549" d="M 123.003906 167.410156 L 137.046875 167.410156 L 137.046875 172.097656 L 123.003906 172.097656 Z M 123.003906 167.410156 " fill-opacity="1" fill-rule="nonzero"/><path fill="#212549" d="M 130.023438 186.160156 L 134.703125 186.160156 L 134.703125 190.847656 L 130.023438 190.847656 Z M 130.023438 186.160156 " fill-opacity="1" fill-rule="nonzero"/><path fill="#212549" d="M 139.386719 186.160156 L 144.066406 186.160156 L 144.066406 190.847656 L 139.386719 190.847656 Z M 139.386719 186.160156 " fill-opacity="1" fill-rule="nonzero"/><path fill="#212549" d="M 97.257812 158.035156 L 101.9375 158.035156 L 101.9375 162.722656 L 97.257812 162.722656 Z M 97.257812 158.035156 " fill-opacity="1" fill-rule="nonzero"/><g clip-path="url(#id4)"><path fill="#f8f8f8" d="M 2.882812 154.953125 L 50.132812 154.953125 L 50.132812 237.445312 L 2.882812 237.445312 L 2.882812 154.953125 " fill-opacity="1" fill-rule="nonzero"/></g><g clip-path="url(#id5)"><path fill="#212549" d="M 42.703125 152.027344 L 9.800781 152.027344 C 4.402344 152.027344 0.0117188 156.402344 0.0117188 161.78125 L 0.0117188 230.015625 C 0.0117188 235.394531 4.402344 239.769531 9.800781 239.769531 L 42.703125 239.769531 C 48.101562 239.769531 52.492188 235.394531 52.492188 230.015625 L 52.492188 161.78125 C 52.492188 156.402344 48.101562 152.027344 42.703125 152.027344 Z M 2.863281 163.203125 L 49.640625 163.203125 L 49.640625 222.160156 L 2.863281 222.160156 Z M 9.800781 154.867188 L 42.703125 154.867188 C 46.039062 154.867188 48.832031 157.226562 49.492188 160.359375 L 3.011719 160.359375 C 3.671875 157.226562 6.464844 154.867188 9.800781 154.867188 Z M 42.703125 236.929688 L 9.800781 236.929688 C 5.976562 236.929688 2.863281 233.828125 2.863281 230.015625 L 2.863281 225 L 49.640625 225 L 49.640625 230.015625 C 49.640625 233.828125 46.527344 236.929688 42.703125 236.929688 Z M 42.703125 236.929688 " fill-opacity="1" fill-rule="nonzero"/></g><path fill="#212549" d="M 26.253906 226.828125 C 23.984375 226.828125 22.136719 228.667969 22.136719 230.929688 C 22.136719 233.1875 23.984375 235.027344 26.253906 235.027344 C 28.519531 235.027344 30.367188 233.1875 30.367188 230.929688 C 30.367188 228.667969 28.519531 226.828125 26.253906 226.828125 Z M 26.253906 232.1875 C 25.554688 232.1875 24.988281 231.621094 24.988281 230.929688 C 24.988281 230.234375 25.554688 229.667969 26.253906 229.667969 C 26.949219 229.667969 27.515625 230.234375 27.515625 230.929688 C 27.515625 231.621094 26.949219 232.1875 26.253906 232.1875 Z M 26.253906 232.1875 " fill-opacity="1" fill-rule="nonzero"/><g clip-path="url(#id6)"><path fill="#212549" d="M 252.09375 100.441406 C 248.21875 96.582031 243.699219 93.589844 238.664062 91.554688 C 233.804688 89.585938 228.667969 88.589844 223.402344 88.589844 C 218.132812 88.589844 213 89.585938 208.136719 91.554688 C 203.101562 93.589844 198.585938 96.582031 194.710938 100.441406 C 193.414062 101.734375 193.414062 103.828125 194.710938 105.121094 C 196.007812 106.414062 198.109375 106.414062 199.402344 105.121094 C 212.636719 91.933594 234.167969 91.933594 247.398438 105.121094 C 248.046875 105.765625 248.894531 106.089844 249.746094 106.089844 C 250.59375 106.089844 251.445312 105.765625 252.09375 105.121094 C 253.390625 103.828125 253.390625 101.734375 252.09375 100.441406 Z M 252.09375 100.441406 " fill-opacity="1" fill-rule="nonzero"/></g><path fill="#212549" d="M 223.398438 100.304688 C 215.269531 100.304688 207.625 103.460938 201.867188 109.195312 C 200.574219 110.488281 200.574219 112.582031 201.867188 113.875 C 203.164062 115.167969 205.265625 115.167969 206.5625 113.875 C 215.84375 104.625 230.949219 104.625 240.230469 113.875 C 240.878906 114.519531 241.726562 114.84375 242.578125 114.84375 C 243.425781 114.84375 244.277344 114.519531 244.925781 113.875 C 246.222656 112.582031 246.222656 110.488281 244.925781 109.195312 C 239.167969 103.460938 231.523438 100.304688 223.394531 100.304688 Z M 223.398438 100.304688 " fill-opacity="1" fill-rule="nonzero"/><path fill="#212549" d="M 223.398438 112.265625 C 218.429688 112.265625 213.757812 114.195312 210.238281 117.703125 C 208.945312 118.992188 208.945312 121.085938 210.238281 122.378906 C 211.535156 123.671875 213.636719 123.671875 214.933594 122.378906 C 219.601562 117.730469 227.195312 117.730469 231.859375 122.378906 C 232.507812 123.027344 233.359375 123.347656 234.207031 123.347656 C 235.054688 123.347656 235.90625 123.027344 236.554688 122.378906 C 237.851562 121.085938 237.851562 118.992188 236.554688 117.703125 C 233.039062 114.195312 228.363281 112.265625 223.398438 112.265625 Z M 223.398438 112.265625 " fill-opacity="1" fill-rule="nonzero"/><g clip-path="url(#id7)"><path fill="#212549" d="M 226.140625 126.347656 C 226.140625 126.710938 226.070312 127.0625 225.929688 127.398438 C 225.789062 127.734375 225.589844 128.03125 225.332031 128.289062 C 225.074219 128.546875 224.777344 128.746094 224.4375 128.886719 C 224.101562 129.027344 223.75 129.09375 223.382812 129.09375 C 223.019531 129.09375 222.667969 129.027344 222.328125 128.886719 C 221.992188 128.746094 221.691406 128.546875 221.433594 128.289062 C 221.175781 128.03125 220.976562 127.734375 220.835938 127.398438 C 220.695312 127.0625 220.628906 126.710938 220.628906 126.347656 C 220.628906 125.984375 220.695312 125.632812 220.835938 125.296875 C 220.976562 124.960938 221.175781 124.664062 221.433594 124.40625 C 221.691406 124.148438 221.992188 123.949219 222.328125 123.808594 C 222.667969 123.671875 223.019531 123.601562 223.382812 123.601562 C 223.75 123.601562 224.101562 123.671875 224.4375 123.808594 C 224.777344 123.949219 225.074219 124.148438 225.332031 124.40625 C 225.589844 124.664062 225.789062 124.960938 225.929688 125.296875 C 226.070312 125.632812 226.140625 125.984375 226.140625 126.347656 Z M 226.140625 126.347656 " fill-opacity="1" fill-rule="nonzero"/></g></svg>