<svg xmlns="http://www.w3.org/2000/svg" xmlns:xlink="http://www.w3.org/1999/xlink" width="48" zoomAndPan="magnify" viewBox="0 0 36 36.000001" height="48" preserveAspectRatio="xMidYMid meet" version="1.0"><defs><clipPath id="id1"><path d="M 0.488281 1.273438 L 35.511719 1.273438 L 35.511719 34.113281 L 0.488281 34.113281 Z M 0.488281 1.273438 " clip-rule="nonzero"/></clipPath><clipPath id="id2"><path d="M 0.488281 8 L 35.511719 8 L 35.511719 12 L 0.488281 12 Z M 0.488281 8 " clip-rule="nonzero"/></clipPath></defs><path fill="#212549" d="M 11.339844 25.269531 C 10.996094 25.269531 10.699219 25.148438 10.457031 24.902344 L 7.125 21.535156 C 7.007812 21.414062 6.917969 21.277344 6.855469 21.125 C 6.789062 20.96875 6.757812 20.808594 6.757812 20.640625 C 6.757812 20.472656 6.789062 20.3125 6.855469 20.15625 C 6.917969 20 7.007812 19.863281 7.125 19.746094 L 10.457031 16.378906 C 10.574219 16.257812 10.707031 16.167969 10.863281 16.105469 C 11.015625 16.039062 11.175781 16.007812 11.339844 16.007812 C 11.503906 16.007812 11.664062 16.039062 11.816406 16.105469 C 11.972656 16.167969 12.105469 16.257812 12.222656 16.378906 C 12.339844 16.496094 12.429688 16.632812 12.496094 16.789062 C 12.558594 16.941406 12.589844 17.105469 12.589844 17.273438 C 12.589844 17.4375 12.558594 17.601562 12.492188 17.753906 C 12.429688 17.910156 12.339844 18.046875 12.222656 18.164062 L 9.773438 20.640625 L 12.222656 23.113281 C 12.402344 23.296875 12.515625 23.511719 12.5625 23.761719 C 12.613281 24.011719 12.589844 24.253906 12.492188 24.492188 C 12.394531 24.726562 12.242188 24.914062 12.03125 25.058594 C 11.824219 25.199219 11.589844 25.269531 11.339844 25.269531 Z M 11.339844 25.269531 " fill-opacity="1" fill-rule="nonzero"/><path fill="#212549" d="M 24.660156 25.269531 C 24.40625 25.269531 24.175781 25.199219 23.96875 25.058594 C 23.757812 24.914062 23.605469 24.726562 23.507812 24.492188 C 23.410156 24.253906 23.386719 24.011719 23.4375 23.761719 C 23.484375 23.511719 23.597656 23.296875 23.777344 23.113281 L 26.226562 20.640625 L 23.777344 18.164062 C 23.660156 18.046875 23.570312 17.910156 23.507812 17.753906 C 23.441406 17.601562 23.410156 17.4375 23.410156 17.273438 C 23.410156 17.105469 23.441406 16.941406 23.507812 16.789062 C 23.570312 16.632812 23.660156 16.496094 23.777344 16.378906 C 23.894531 16.261719 24.027344 16.167969 24.183594 16.105469 C 24.335938 16.039062 24.496094 16.007812 24.660156 16.007812 C 24.824219 16.007812 24.984375 16.039062 25.136719 16.105469 C 25.292969 16.167969 25.425781 16.257812 25.542969 16.378906 L 28.875 19.746094 C 28.992188 19.863281 29.082031 20 29.144531 20.15625 C 29.210938 20.3125 29.242188 20.472656 29.242188 20.640625 C 29.242188 20.808594 29.210938 20.96875 29.144531 21.125 C 29.082031 21.277344 28.992188 21.414062 28.875 21.535156 L 25.542969 24.902344 C 25.300781 25.148438 25.003906 25.269531 24.660156 25.269531 Z M 24.660156 25.269531 " fill-opacity="1" fill-rule="nonzero"/><path fill="#212549" d="M 16.332031 25.269531 C 16.226562 25.269531 16.121094 25.257812 16.019531 25.230469 C 15.917969 25.203125 15.820312 25.164062 15.726562 25.109375 C 15.632812 25.058594 15.546875 24.996094 15.472656 24.921875 C 15.394531 24.847656 15.328125 24.761719 15.273438 24.671875 C 15.214844 24.578125 15.171875 24.484375 15.140625 24.378906 C 15.109375 24.277344 15.089844 24.171875 15.085938 24.0625 C 15.082031 23.957031 15.089844 23.851562 15.113281 23.746094 C 15.136719 23.640625 15.167969 23.539062 15.21875 23.441406 L 18.546875 16.707031 C 18.621094 16.554688 18.722656 16.425781 18.847656 16.316406 C 18.972656 16.207031 19.113281 16.125 19.273438 16.074219 C 19.429688 16.019531 19.589844 16 19.757812 16.011719 C 19.921875 16.023438 20.078125 16.070312 20.226562 16.144531 C 20.375 16.21875 20.503906 16.320312 20.613281 16.449219 C 20.71875 16.574219 20.800781 16.71875 20.851562 16.878906 C 20.90625 17.035156 20.925781 17.199219 20.914062 17.367188 C 20.902344 17.535156 20.855469 17.691406 20.78125 17.84375 L 17.453125 24.578125 C 17.347656 24.792969 17.191406 24.960938 16.992188 25.085938 C 16.789062 25.210938 16.570312 25.273438 16.332031 25.269531 Z M 16.332031 25.269531 " fill-opacity="1" fill-rule="nonzero"/><g clip-path="url(#id1)"><path fill="#212549" d="M 34.238281 34.113281 L 1.761719 34.113281 C 1.597656 34.113281 1.4375 34.078125 1.285156 34.015625 C 1.132812 33.953125 0.996094 33.859375 0.878906 33.742188 C 0.761719 33.625 0.671875 33.488281 0.609375 33.332031 C 0.546875 33.175781 0.515625 33.015625 0.515625 32.847656 L 0.515625 2.535156 C 0.515625 2.371094 0.546875 2.207031 0.609375 2.054688 C 0.671875 1.898438 0.761719 1.761719 0.878906 1.644531 C 0.996094 1.523438 1.132812 1.433594 1.285156 1.371094 C 1.4375 1.304688 1.597656 1.273438 1.761719 1.273438 L 34.238281 1.273438 C 34.402344 1.273438 34.5625 1.304688 34.714844 1.371094 C 34.867188 1.433594 35.003906 1.523438 35.121094 1.644531 C 35.238281 1.761719 35.328125 1.898438 35.390625 2.054688 C 35.453125 2.207031 35.484375 2.371094 35.484375 2.535156 L 35.484375 32.847656 C 35.484375 33.015625 35.453125 33.175781 35.390625 33.332031 C 35.328125 33.488281 35.238281 33.625 35.121094 33.742188 C 35.003906 33.859375 34.867188 33.953125 34.714844 34.015625 C 34.5625 34.078125 34.402344 34.113281 34.238281 34.113281 Z M 3.011719 31.585938 L 32.988281 31.585938 L 32.988281 3.800781 L 3.011719 3.800781 Z M 3.011719 31.585938 " fill-opacity="1" fill-rule="nonzero"/></g><g clip-path="url(#id2)"><path fill="#212549" d="M 34.238281 11.378906 L 1.761719 11.378906 C 1.597656 11.378906 1.4375 11.34375 1.285156 11.28125 C 1.132812 11.21875 0.996094 11.125 0.878906 11.007812 C 0.761719 10.890625 0.671875 10.753906 0.609375 10.597656 C 0.546875 10.441406 0.515625 10.28125 0.515625 10.113281 C 0.515625 9.945312 0.546875 9.785156 0.609375 9.632812 C 0.671875 9.476562 0.761719 9.339844 0.878906 9.222656 C 0.996094 9.101562 1.132812 9.011719 1.285156 8.949219 C 1.4375 8.882812 1.597656 8.851562 1.761719 8.851562 L 34.238281 8.851562 C 34.402344 8.851562 34.5625 8.882812 34.714844 8.949219 C 34.867188 9.011719 35.003906 9.101562 35.121094 9.222656 C 35.238281 9.339844 35.328125 9.476562 35.390625 9.632812 C 35.453125 9.785156 35.484375 9.945312 35.484375 10.113281 C 35.484375 10.28125 35.453125 10.441406 35.390625 10.597656 C 35.328125 10.753906 35.238281 10.890625 35.121094 11.007812 C 35.003906 11.125 34.867188 11.21875 34.714844 11.28125 C 34.5625 11.34375 34.402344 11.378906 34.238281 11.378906 Z M 34.238281 11.378906 " fill-opacity="1" fill-rule="nonzero"/></g><path fill="#212549" d="M 22.996094 7.589844 C 22.910156 7.585938 22.828125 7.578125 22.746094 7.5625 C 22.667969 7.550781 22.59375 7.523438 22.519531 7.488281 C 22.441406 7.460938 22.367188 7.421875 22.296875 7.375 L 22.109375 7.222656 C 21.992188 7.101562 21.902344 6.964844 21.839844 6.808594 C 21.777344 6.65625 21.746094 6.492188 21.746094 6.324219 C 21.746094 6.15625 21.777344 5.996094 21.839844 5.839844 C 21.902344 5.6875 21.992188 5.546875 22.109375 5.429688 C 22.289062 5.253906 22.503906 5.140625 22.75 5.09375 C 22.996094 5.042969 23.238281 5.066406 23.46875 5.164062 C 23.546875 5.1875 23.617188 5.226562 23.683594 5.277344 C 23.757812 5.328125 23.820312 5.378906 23.882812 5.429688 C 24 5.546875 24.089844 5.6875 24.152344 5.839844 C 24.214844 5.996094 24.246094 6.15625 24.246094 6.324219 C 24.246094 6.492188 24.214844 6.65625 24.152344 6.808594 C 24.089844 6.964844 24 7.101562 23.882812 7.222656 C 23.761719 7.335938 23.621094 7.421875 23.46875 7.488281 C 23.320312 7.554688 23.160156 7.585938 22.996094 7.589844 Z M 22.996094 7.589844 " fill-opacity="1" fill-rule="nonzero"/><path fill="#212549" d="M 26.742188 7.589844 C 26.660156 7.585938 26.574219 7.578125 26.492188 7.5625 C 26.414062 7.550781 26.339844 7.523438 26.269531 7.488281 C 26.1875 7.460938 26.113281 7.421875 26.042969 7.375 C 25.976562 7.328125 25.914062 7.277344 25.855469 7.222656 C 25.738281 7.101562 25.652344 6.964844 25.59375 6.804688 C 25.453125 6.484375 25.453125 6.164062 25.59375 5.847656 C 25.65625 5.691406 25.746094 5.550781 25.855469 5.429688 C 26.035156 5.246094 26.25 5.128906 26.496094 5.078125 C 26.746094 5.03125 26.988281 5.054688 27.222656 5.152344 C 27.457031 5.25 27.644531 5.40625 27.785156 5.621094 C 27.921875 5.832031 27.992188 6.070312 27.992188 6.324219 C 27.988281 6.671875 27.867188 6.972656 27.628906 7.222656 C 27.570312 7.277344 27.507812 7.328125 27.441406 7.375 C 27.371094 7.421875 27.296875 7.460938 27.21875 7.488281 C 27.144531 7.523438 27.070312 7.550781 26.992188 7.5625 C 26.910156 7.578125 26.828125 7.585938 26.742188 7.589844 Z M 26.742188 7.589844 " fill-opacity="1" fill-rule="nonzero"/><path fill="#212549" d="M 30.488281 7.589844 C 30.324219 7.589844 30.164062 7.558594 30.007812 7.496094 C 29.855469 7.433594 29.71875 7.339844 29.601562 7.222656 C 29.484375 7.105469 29.394531 6.964844 29.332031 6.8125 C 29.269531 6.65625 29.238281 6.492188 29.242188 6.324219 C 29.234375 6.15625 29.269531 5.996094 29.339844 5.847656 C 29.40625 5.691406 29.492188 5.550781 29.601562 5.429688 C 29.722656 5.316406 29.859375 5.230469 30.011719 5.167969 C 30.167969 5.109375 30.324219 5.078125 30.488281 5.078125 C 30.652344 5.078125 30.8125 5.109375 30.964844 5.167969 C 31.117188 5.230469 31.253906 5.316406 31.375 5.429688 C 31.488281 5.550781 31.574219 5.691406 31.636719 5.847656 C 31.703125 6 31.738281 6.160156 31.738281 6.324219 C 31.742188 6.492188 31.710938 6.65625 31.648438 6.8125 C 31.585938 6.964844 31.492188 7.105469 31.375 7.222656 C 31.257812 7.339844 31.125 7.433594 30.96875 7.496094 C 30.816406 7.558594 30.65625 7.589844 30.488281 7.589844 Z M 30.488281 7.589844 " fill-opacity="1" fill-rule="nonzero"/></svg>