<svg xmlns="http://www.w3.org/2000/svg" xmlns:xlink="http://www.w3.org/1999/xlink" width="48" zoomAndPan="magnify" viewBox="0 0 36 36.000001" height="48" preserveAspectRatio="xMidYMid meet" version="1.0"><defs><clipPath id="id1"><path d="M 6.855469 0 L 29.476562 0 L 29.476562 35.027344 L 6.855469 35.027344 Z M 6.855469 0 " clip-rule="nonzero"/></clipPath></defs><g clip-path="url(#id1)"><path fill="#212549" d="M 24.628906 0.0078125 L 11.703125 0.0078125 C 9.027344 0.0078125 6.855469 2.148438 6.855469 4.78125 L 6.855469 30.246094 C 6.855469 32.878906 9.027344 35.019531 11.703125 35.019531 L 24.628906 35.019531 C 27.304688 35.019531 29.476562 32.878906 29.476562 30.246094 L 29.476562 4.78125 C 29.476562 2.148438 27.304688 0.0078125 24.628906 0.0078125 Z M 21.398438 31.835938 L 14.933594 31.835938 L 14.933594 30.246094 L 21.398438 30.246094 Z M 26.648438 27.0625 L 9.683594 27.0625 L 9.683594 4.78125 L 26.648438 4.78125 Z M 26.648438 27.0625 " fill-opacity="1" fill-rule="nonzero"/></g></svg>