<svg xmlns="http://www.w3.org/2000/svg" xmlns:xlink="http://www.w3.org/1999/xlink" width="48" zoomAndPan="magnify" viewBox="0 0 36 36.000001" height="48" preserveAspectRatio="xMidYMid meet" version="1.0"><defs><clipPath id="id1"><path d="M 0.488281 1.019531 L 25 1.019531 L 25 25 L 0.488281 25 Z M 0.488281 1.019531 " clip-rule="nonzero"/></clipPath><clipPath id="id2"><path d="M 0.488281 6 L 21 6 L 21 25 L 0.488281 25 Z M 0.488281 6 " clip-rule="nonzero"/></clipPath><clipPath id="id3"><path d="M 17 16 L 35.511719 16 L 35.511719 33.855469 L 17 33.855469 Z M 17 16 " clip-rule="nonzero"/></clipPath><clipPath id="id4"><path d="M 21 16 L 35.511719 16 L 35.511719 33.855469 L 21 33.855469 Z M 21 16 " clip-rule="nonzero"/></clipPath></defs><g clip-path="url(#id1)"><path fill="#333760" d="M 24.03125 10.96875 C 23.875 9.921875 22.984375 9.1875 22.042969 9.328125 C 21.792969 9.363281 21.566406 9.460938 21.367188 9.597656 L 21.363281 9.601562 C 21.222656 9.703125 21.097656 9.824219 20.988281 9.964844 C 19.886719 10.894531 19.167969 10.144531 18.960938 9.878906 L 18.210938 4.882812 L 13.101562 5.640625 C 12.726562 5.46875 12.007812 4.96875 12.527344 3.773438 C 12.628906 3.628906 12.710938 3.476562 12.765625 3.3125 L 12.769531 3.308594 C 12.84375 3.078125 12.871094 2.832031 12.835938 2.585938 C 12.695312 1.648438 11.726562 1.011719 10.675781 1.167969 C 9.625 1.324219 8.886719 2.210938 9.023438 3.148438 C 9.0625 3.398438 9.160156 3.625 9.300781 3.820312 L 9.296875 3.820312 L 9.300781 3.824219 C 9.402344 3.964844 9.527344 4.089844 9.667969 4.195312 C 10.511719 5.191406 9.972656 5.878906 9.664062 6.148438 L 4.550781 6.90625 L 5.285156 11.808594 L 5.269531 11.8125 C 5.269531 11.8125 4.902344 13.261719 3.320312 12.585938 C 3.175781 12.480469 3.019531 12.402344 2.855469 12.347656 L 2.851562 12.34375 C 2.621094 12.269531 2.375 12.242188 2.125 12.277344 C 1.183594 12.417969 0.546875 13.378906 0.703125 14.425781 C 0.859375 15.472656 1.75 16.210938 2.691406 16.070312 C 2.941406 16.03125 3.171875 15.9375 3.367188 15.796875 L 3.371094 15.792969 C 3.515625 15.695312 3.636719 15.570312 3.746094 15.429688 C 5.0625 14.320312 5.835938 15.605469 5.835938 15.605469 L 5.851562 15.601562 L 6.585938 20.507812 L 11.511719 19.777344 C 11.511719 19.777344 12.96875 20.140625 12.285156 21.71875 C 12.183594 21.859375 12.101562 22.015625 12.046875 22.179688 L 12.042969 22.183594 L 12.046875 22.183594 C 11.96875 22.414062 11.941406 22.660156 11.980469 22.90625 C 12.121094 23.84375 13.085938 24.476562 14.136719 24.320312 C 15.1875 24.164062 15.929688 23.28125 15.789062 22.34375 C 15.75 22.09375 15.652344 21.867188 15.511719 21.671875 L 15.515625 21.667969 L 15.511719 21.664062 C 15.410156 21.523438 15.285156 21.398438 15.144531 21.292969 C 14.035156 19.984375 15.316406 19.210938 15.320312 19.210938 L 20.246094 18.480469 L 19.5 13.484375 C 19.617188 13.167969 20.089844 12.246094 21.417969 12.8125 C 21.558594 12.914062 21.714844 12.996094 21.878906 13.050781 L 21.882812 13.054688 C 22.113281 13.128906 22.359375 13.15625 22.609375 13.117188 C 23.550781 12.980469 24.1875 12.015625 24.03125 10.96875 " fill-opacity="1" fill-rule="nonzero"/></g><g clip-path="url(#id2)"><path fill="#212549" d="M 2.691406 16.070312 C 2.941406 16.03125 3.171875 15.9375 3.367188 15.796875 L 3.371094 15.792969 C 3.515625 15.695312 3.636719 15.570312 3.746094 15.429688 C 5.0625 14.320312 5.835938 15.605469 5.835938 15.605469 L 5.851562 15.601562 L 6.585938 20.507812 L 11.511719 19.777344 C 11.511719 19.777344 12.96875 20.140625 12.285156 21.71875 C 12.183594 21.859375 12.101562 22.015625 12.046875 22.179688 L 12.042969 22.183594 L 12.046875 22.183594 C 11.96875 22.414062 11.941406 22.660156 11.980469 22.90625 C 12.121094 23.84375 13.085938 24.476562 14.136719 24.320312 C 15.1875 24.164062 15.929688 23.28125 15.789062 22.34375 C 15.75 22.09375 15.652344 21.867188 15.511719 21.671875 L 15.515625 21.667969 L 15.511719 21.664062 C 15.410156 21.523438 15.285156 21.398438 15.144531 21.292969 C 14.035156 19.984375 15.316406 19.210938 15.320312 19.210938 L 20.246094 18.480469 L 19.894531 16.117188 C 10.757812 15.519531 7.300781 10.328125 5.996094 6.691406 L 4.550781 6.90625 L 5.285156 11.808594 L 5.269531 11.8125 C 5.269531 11.8125 4.902344 13.261719 3.320312 12.585938 C 3.175781 12.480469 3.019531 12.402344 2.855469 12.347656 L 2.851562 12.34375 C 2.621094 12.269531 2.375 12.242188 2.125 12.277344 C 1.183594 12.417969 0.546875 13.378906 0.703125 14.425781 C 0.859375 15.472656 1.75 16.210938 2.691406 16.070312 " fill-opacity="1" fill-rule="nonzero"/></g><g clip-path="url(#id3)"><path fill="#333760" d="M 25.871094 17.867188 C 25.871094 17.867188 24.78125 18.898438 26.15625 19.933594 C 26.316406 20.007812 26.464844 20.101562 26.59375 20.21875 L 26.597656 20.222656 C 26.777344 20.382812 26.921875 20.585938 27.011719 20.820312 C 27.351562 21.703125 26.824219 22.730469 25.832031 23.105469 C 24.839844 23.488281 23.757812 23.078125 23.417969 22.195312 C 23.324219 21.957031 23.300781 21.714844 23.320312 21.476562 L 23.324219 21.46875 C 23.34375 21.296875 23.386719 21.128906 23.457031 20.96875 C 23.777344 19.28125 22.277344 19.238281 22.277344 19.238281 L 17.628906 21.019531 L 19.414062 25.644531 C 19.414062 25.644531 20.449219 26.730469 21.492188 25.363281 C 21.566406 25.203125 21.664062 25.054688 21.777344 24.925781 L 21.78125 24.921875 C 21.945312 24.746094 22.144531 24.601562 22.382812 24.507812 C 23.269531 24.171875 24.300781 24.695312 24.679688 25.683594 C 25.0625 26.671875 24.652344 27.75 23.761719 28.089844 C 23.527344 28.179688 23.28125 28.207031 23.039062 28.183594 L 23.035156 28.179688 C 22.863281 28.164062 22.691406 28.117188 22.527344 28.046875 C 20.835938 27.730469 20.792969 29.222656 20.792969 29.222656 L 22.578125 33.851562 L 35.472656 28.921875 L 30.519531 16.085938 L 25.871094 17.867188 " fill-opacity="1" fill-rule="nonzero"/></g><path fill="#212549" d="M 29.898438 16.324219 L 30.519531 16.085938 L 29.898438 16.324219 " fill-opacity="1" fill-rule="nonzero"/><g clip-path="url(#id4)"><path fill="#212549" d="M 22.578125 33.851562 L 21.894531 32.074219 C 25.136719 31.160156 31.875 27.855469 29.898438 16.324219 L 30.519531 16.085938 L 35.472656 28.921875 L 22.578125 33.851562 " fill-opacity="1" fill-rule="nonzero"/></g></svg>